<svg  xmlns="http://www.w3.org/2000/svg" xmlns:xlink="http://www.w3.org/1999/xlink">
    <symbol id="arrow-down" viewBox="0 0 10 7">
        <path d="M1.17188 0.648438L5 4.47656L8.82812 0.648438L10 1.82031L5 6.82031L0 1.82031L1.17188 0.648438Z" fill="white" fill-opacity="0.5"/>
    </symbol>
    <symbol id="insta" viewBox="0 0 74 74">
        <path d="M53.7909 0.0244141H19.9651C8.95614 0.0244141 0 8.98056 0 19.9895V53.8159C0 64.8242 8.95614 73.7804 19.9651 73.7804H53.7915C64.7998 73.7804 73.756 64.8242 73.756 53.8159V19.9895C73.756 8.98056 64.7998 0.0244141 53.7909 0.0244141ZM36.878 57.0695C25.7576 57.0695 16.7109 48.0227 16.7109 36.9024C16.7109 25.7821 25.7576 16.7353 36.878 16.7353C47.9983 16.7353 57.0451 25.7821 57.0451 36.9024C57.0451 48.0227 47.9983 57.0695 36.878 57.0695ZM57.5273 21.4914C54.2411 21.4914 51.5682 18.8185 51.5682 15.5322C51.5682 12.246 54.2411 9.57253 57.5273 9.57253C60.8136 9.57253 63.487 12.246 63.487 15.5322C63.487 18.8185 60.8136 21.4914 57.5273 21.4914Z" fill="white"/>
        <path fill-rule="evenodd" clip-rule="evenodd" d="M23.707 36.9025C23.707 29.6388 29.6146 23.7318 36.8778 23.7318C44.1414 23.7318 50.0485 29.6388 50.0485 36.9025C50.0485 44.1657 44.1414 50.0732 36.8778 50.0732C29.6145 50.0732 23.707 44.1657 23.707 36.9025ZM36.8778 26.3602C31.0661 26.3602 26.3354 31.0905 26.3354 36.9025C26.3354 42.7141 31.0662 47.4448 36.8778 47.4448C42.6897 47.4448 47.4201 42.7141 47.4201 36.9025C47.4201 31.0905 42.6898 26.3602 36.8778 26.3602Z" fill="white" stroke="white" stroke-width="3"/>
    </symbol>
    <symbol id="behance" viewBox="0 0 88 88">
        <path d="M59.2066 40.061C54.2504 40.061 53.5645 45 53.5645 45H64.0942C64.0942 45 64.1628 40.061 59.2066 40.061Z" fill="white"/>
        <path d="M35.3176 45H25.9883V53.5747H34.8545C36.1922 53.5404 38.696 53.1631 38.696 49.4074C38.696 44.9486 35.3176 45 35.3176 45Z" fill="white"/>
        <path d="M44.0982 5.48779C22.8844 5.48779 5.68359 22.6886 5.68359 43.9024C5.68359 65.1162 22.8844 82.3171 44.0982 82.3171C65.312 82.3171 82.5129 65.1162 82.5129 43.9024C82.5129 22.6886 65.312 5.48779 44.0982 5.48779ZM52.1927 29.0854H65.4149V33.0297H52.1927V29.0854ZM45.5045 49.8018C45.5045 59.577 35.3177 59.2683 35.3177 59.2683H18.6485V27.1989H35.3177C40.394 27.1989 44.3898 29.9943 44.3898 35.7393C44.3898 41.4844 39.5022 41.8445 39.5022 41.8445C45.9504 41.8445 45.5045 49.8018 45.5045 49.8018ZM70.2339 49.2702H53.6161C53.6161 55.221 59.2583 54.8437 59.2583 54.8437C64.5917 54.8437 64.4031 51.3967 64.4031 51.3967H70.0452C70.0452 60.5545 59.0696 59.92 59.0696 59.92C45.9161 59.92 46.7564 47.6581 46.7564 47.6581C46.7564 47.6581 46.7392 35.3449 59.0696 35.3449C72.0517 35.362 70.2339 49.2702 70.2339 49.2702Z" fill="white"/>
        <path d="M37.5813 36.2367C37.5813 32.9097 35.3176 32.9097 35.3176 32.9097H25.9883V40.061H34.7345C36.2436 40.061 37.5813 39.5636 37.5813 36.2367Z" fill="white"/>
    </symbol>
</svg> 


